<mxfile host="app.diagrams.net" modified="2024-02-01T10:35:16.483Z" agent="Mozilla/5.0 (Windows NT 10.0; Win64; x64) AppleWebKit/537.36 (KHTML, like Gecko) Chrome/120.0.0.0 Safari/537.36 Edg/120.0.0.0" etag="Vn4yDJ--oWIVtNlAv0So" version="23.1.0" type="github">
  <diagram id="yPxyJZ8AM_hMuL3Unpa9" name="complex gitflow">
    <mxGraphModel dx="1386" dy="785" grid="1" gridSize="10" guides="1" tooltips="1" connect="1" arrows="1" fold="1" page="1" pageScale="1" pageWidth="1100" pageHeight="850" math="0" shadow="0">
      <root>
        <mxCell id="0" />
        <mxCell id="1" parent="0" />
        <mxCell id="uWUnNED6HEl2aK5fdaIb-8" value="" style="edgeStyle=orthogonalEdgeStyle;rounded=0;html=1;jettySize=auto;orthogonalLoop=1;plain-blue;endArrow=none;endFill=0;strokeWidth=4;strokeColor=#000000;entryX=0;entryY=0.5;entryDx=0;entryDy=0;entryPerimeter=0;" parent="1" source="uWUnNED6HEl2aK5fdaIb-10" edge="1">
          <mxGeometry x="292.25" y="211" as="geometry">
            <mxPoint x="452.25" y="178" as="targetPoint" />
          </mxGeometry>
        </mxCell>
        <mxCell id="uWUnNED6HEl2aK5fdaIb-9" style="edgeStyle=orthogonalEdgeStyle;curved=1;rounded=0;html=1;exitX=1;exitY=0.5;exitPerimeter=0;entryX=0;entryY=0.5;entryPerimeter=0;endArrow=none;endFill=0;jettySize=auto;orthogonalLoop=1;strokeWidth=4;fontSize=15;" parent="1" source="uWUnNED6HEl2aK5fdaIb-10" target="uWUnNED6HEl2aK5fdaIb-15" edge="1">
          <mxGeometry relative="1" as="geometry" />
        </mxCell>
        <mxCell id="uWUnNED6HEl2aK5fdaIb-10" value="" style="verticalLabelPosition=bottom;verticalAlign=top;html=1;strokeWidth=4;shape=mxgraph.flowchart.on-page_reference;plain-blue;gradientColor=none;fillColor=#999999;strokeColor=#000000;" parent="1" vertex="1">
          <mxGeometry x="208.25" y="163" width="30" height="30" as="geometry" />
        </mxCell>
        <mxCell id="uWUnNED6HEl2aK5fdaIb-80" value="" style="edgeStyle=orthogonalEdgeStyle;curved=1;rounded=0;orthogonalLoop=1;jettySize=auto;html=1;endArrow=none;endFill=0;strokeWidth=4;entryX=0;entryY=0.5;entryDx=0;entryDy=0;entryPerimeter=0;" parent="1" source="Z2AbHixO8yb0AyLC4-0U-61" target="uWUnNED6HEl2aK5fdaIb-109" edge="1">
          <mxGeometry relative="1" as="geometry">
            <mxPoint x="734.4999999999995" y="178" as="targetPoint" />
          </mxGeometry>
        </mxCell>
        <mxCell id="uWUnNED6HEl2aK5fdaIb-11" value="" style="verticalLabelPosition=bottom;verticalAlign=top;html=1;strokeWidth=4;shape=mxgraph.flowchart.on-page_reference;plain-blue;gradientColor=none;strokeColor=#000000;fillColor=#999999;" parent="1" vertex="1">
          <mxGeometry x="562.25" y="163" width="30" height="30" as="geometry" />
        </mxCell>
        <mxCell id="uWUnNED6HEl2aK5fdaIb-109" value="" style="verticalLabelPosition=bottom;verticalAlign=top;html=1;strokeWidth=4;shape=mxgraph.flowchart.on-page_reference;plain-blue;gradientColor=none;strokeColor=#33001A;fillColor=#999999;" parent="1" vertex="1">
          <mxGeometry x="960" y="161" width="30" height="30" as="geometry" />
        </mxCell>
        <mxCell id="uWUnNED6HEl2aK5fdaIb-12" value="" style="edgeStyle=orthogonalEdgeStyle;rounded=0;html=1;jettySize=auto;orthogonalLoop=1;strokeWidth=4;endArrow=none;endFill=0;" parent="1" target="uWUnNED6HEl2aK5fdaIb-10" edge="1">
          <mxGeometry x="192.25" y="211" as="geometry">
            <mxPoint x="150" y="178" as="sourcePoint" />
          </mxGeometry>
        </mxCell>
        <mxCell id="uWUnNED6HEl2aK5fdaIb-13" value="main" style="text;html=1;strokeColor=none;fillColor=none;align=center;verticalAlign=middle;whiteSpace=wrap;overflow=hidden;fontSize=13;fontStyle=1;fontFamily=Verdana;" parent="1" vertex="1">
          <mxGeometry x="85.75" y="153" width="50" height="42" as="geometry" />
        </mxCell>
        <mxCell id="uWUnNED6HEl2aK5fdaIb-14" style="edgeStyle=orthogonalEdgeStyle;curved=1;rounded=0;html=1;exitX=1;exitY=0.5;exitPerimeter=0;endArrow=none;endFill=0;jettySize=auto;orthogonalLoop=1;strokeWidth=4;fontSize=15;" parent="1" source="uWUnNED6HEl2aK5fdaIb-15" target="uWUnNED6HEl2aK5fdaIb-17" edge="1">
          <mxGeometry relative="1" as="geometry" />
        </mxCell>
        <mxCell id="uWUnNED6HEl2aK5fdaIb-15" value="" style="verticalLabelPosition=bottom;verticalAlign=top;html=1;strokeWidth=4;shape=mxgraph.flowchart.on-page_reference;plain-purple;gradientColor=none;strokeColor=#000000;fillColor=#B5E3FE;" parent="1" vertex="1">
          <mxGeometry x="295.75" y="374" width="30" height="30" as="geometry" />
        </mxCell>
        <mxCell id="uWUnNED6HEl2aK5fdaIb-16" style="edgeStyle=orthogonalEdgeStyle;curved=1;rounded=0;html=1;exitX=1;exitY=0.5;exitPerimeter=0;entryX=0;entryY=0.5;entryPerimeter=0;endArrow=none;endFill=0;jettySize=auto;orthogonalLoop=1;strokeWidth=4;fontSize=15;" parent="1" source="uWUnNED6HEl2aK5fdaIb-17" target="uWUnNED6HEl2aK5fdaIb-19" edge="1">
          <mxGeometry relative="1" as="geometry" />
        </mxCell>
        <mxCell id="uWUnNED6HEl2aK5fdaIb-17" value="" style="verticalLabelPosition=bottom;verticalAlign=top;html=1;strokeWidth=4;shape=mxgraph.flowchart.on-page_reference;plain-purple;gradientColor=none;strokeColor=#000000;fillColor=#B5E3FE;" parent="1" vertex="1">
          <mxGeometry x="400" y="374" width="30" height="30" as="geometry" />
        </mxCell>
        <mxCell id="uWUnNED6HEl2aK5fdaIb-18" style="edgeStyle=orthogonalEdgeStyle;curved=1;rounded=0;html=1;exitX=1;exitY=0.5;exitPerimeter=0;entryX=0;entryY=0.5;entryPerimeter=0;endArrow=none;endFill=0;jettySize=auto;orthogonalLoop=1;strokeWidth=4;fontSize=15;" parent="1" source="uWUnNED6HEl2aK5fdaIb-19" target="uWUnNED6HEl2aK5fdaIb-11" edge="1">
          <mxGeometry relative="1" as="geometry" />
        </mxCell>
        <mxCell id="uWUnNED6HEl2aK5fdaIb-19" value="" style="verticalLabelPosition=bottom;verticalAlign=top;html=1;strokeWidth=4;shape=mxgraph.flowchart.on-page_reference;plain-purple;gradientColor=none;strokeColor=#000000;fillColor=#B5E3FE;" parent="1" vertex="1">
          <mxGeometry x="490" y="374" width="30" height="30" as="geometry" />
        </mxCell>
        <mxCell id="Z2AbHixO8yb0AyLC4-0U-66" value="" style="edgeStyle=orthogonalEdgeStyle;rounded=0;orthogonalLoop=1;jettySize=auto;html=1;" edge="1" parent="1">
          <mxGeometry relative="1" as="geometry">
            <mxPoint x="190" y="388.5" as="sourcePoint" />
            <mxPoint x="285.75" y="388.5" as="targetPoint" />
          </mxGeometry>
        </mxCell>
        <mxCell id="uWUnNED6HEl2aK5fdaIb-20" value="1.1.0-release" style="text;html=1;strokeColor=none;fillColor=none;align=left;verticalAlign=middle;whiteSpace=wrap;overflow=hidden;fontSize=13;fontStyle=1;fontFamily=Verdana;" parent="1" vertex="1">
          <mxGeometry x="87.75" y="379" width="112.25" height="20" as="geometry" />
        </mxCell>
        <mxCell id="uWUnNED6HEl2aK5fdaIb-71" value="" style="edgeStyle=orthogonalEdgeStyle;rounded=0;orthogonalLoop=1;jettySize=auto;html=1;endArrow=none;endFill=0;strokeWidth=4;" parent="1" source="uWUnNED6HEl2aK5fdaIb-69" target="uWUnNED6HEl2aK5fdaIb-70" edge="1">
          <mxGeometry relative="1" as="geometry" />
        </mxCell>
        <mxCell id="uWUnNED6HEl2aK5fdaIb-75" style="edgeStyle=orthogonalEdgeStyle;rounded=0;orthogonalLoop=1;jettySize=auto;html=1;entryX=1;entryY=0.5;entryDx=0;entryDy=0;entryPerimeter=0;endArrow=none;endFill=0;strokeWidth=4;curved=1;" parent="1" source="uWUnNED6HEl2aK5fdaIb-69" target="uWUnNED6HEl2aK5fdaIb-15" edge="1">
          <mxGeometry relative="1" as="geometry" />
        </mxCell>
        <mxCell id="uWUnNED6HEl2aK5fdaIb-94" style="edgeStyle=orthogonalEdgeStyle;curved=1;rounded=0;orthogonalLoop=1;jettySize=auto;html=1;exitX=1;exitY=0.5;exitDx=0;exitDy=0;exitPerimeter=0;entryX=0;entryY=0.5;entryDx=0;entryDy=0;entryPerimeter=0;endArrow=none;endFill=0;strokeWidth=4;fontFamily=Courier New;fontColor=#009900;" parent="1" source="uWUnNED6HEl2aK5fdaIb-69" target="uWUnNED6HEl2aK5fdaIb-82" edge="1">
          <mxGeometry relative="1" as="geometry" />
        </mxCell>
        <mxCell id="uWUnNED6HEl2aK5fdaIb-69" value="" style="verticalLabelPosition=bottom;verticalAlign=top;html=1;strokeWidth=4;shape=mxgraph.flowchart.on-page_reference;plain-purple;gradientColor=none;strokeColor=#000000;fillColor=#67AB9F;" parent="1" vertex="1">
          <mxGeometry x="370" y="605" width="30" height="30" as="geometry" />
        </mxCell>
        <mxCell id="uWUnNED6HEl2aK5fdaIb-78" value="" style="edgeStyle=orthogonalEdgeStyle;curved=1;rounded=0;orthogonalLoop=1;jettySize=auto;html=1;endArrow=none;endFill=0;strokeWidth=4;" parent="1" source="uWUnNED6HEl2aK5fdaIb-70" target="uWUnNED6HEl2aK5fdaIb-77" edge="1">
          <mxGeometry relative="1" as="geometry" />
        </mxCell>
        <mxCell id="uWUnNED6HEl2aK5fdaIb-70" value="" style="verticalLabelPosition=bottom;verticalAlign=top;html=1;strokeWidth=4;shape=mxgraph.flowchart.on-page_reference;plain-purple;gradientColor=none;strokeColor=#000000;fillColor=#67AB9F;" parent="1" vertex="1">
          <mxGeometry x="517.5" y="605" width="30" height="30" as="geometry" />
        </mxCell>
        <mxCell id="uWUnNED6HEl2aK5fdaIb-96" value="" style="edgeStyle=orthogonalEdgeStyle;curved=1;rounded=0;orthogonalLoop=1;jettySize=auto;html=1;endArrow=none;endFill=0;strokeWidth=4;fontFamily=Courier New;fontColor=#009900;" parent="1" source="uWUnNED6HEl2aK5fdaIb-77" target="uWUnNED6HEl2aK5fdaIb-95" edge="1">
          <mxGeometry relative="1" as="geometry" />
        </mxCell>
        <mxCell id="uWUnNED6HEl2aK5fdaIb-108" style="edgeStyle=orthogonalEdgeStyle;curved=1;rounded=0;orthogonalLoop=1;jettySize=auto;html=1;entryX=0;entryY=0.5;entryDx=0;entryDy=0;entryPerimeter=0;endArrow=none;endFill=0;strokeWidth=4;fontFamily=Courier New;fontColor=#009900;" parent="1" source="uWUnNED6HEl2aK5fdaIb-95" target="uWUnNED6HEl2aK5fdaIb-104" edge="1">
          <mxGeometry relative="1" as="geometry" />
        </mxCell>
        <mxCell id="uWUnNED6HEl2aK5fdaIb-95" value="" style="verticalLabelPosition=bottom;verticalAlign=top;html=1;strokeWidth=4;shape=mxgraph.flowchart.on-page_reference;plain-purple;gradientColor=none;strokeColor=#000000;fillColor=#67AB9F;" parent="1" vertex="1">
          <mxGeometry x="740" y="605" width="30" height="30" as="geometry" />
        </mxCell>
        <mxCell id="uWUnNED6HEl2aK5fdaIb-76" value="develop" style="text;html=1;strokeColor=none;fillColor=none;align=left;verticalAlign=middle;whiteSpace=wrap;overflow=hidden;fontSize=13;fontStyle=1;fontFamily=Verdana;" parent="1" vertex="1">
          <mxGeometry x="87.75" y="600" width="91" height="20" as="geometry" />
        </mxCell>
        <mxCell id="uWUnNED6HEl2aK5fdaIb-82" value="" style="verticalLabelPosition=bottom;verticalAlign=top;html=1;strokeWidth=4;shape=mxgraph.flowchart.on-page_reference;plain-purple;gradientColor=none;strokeColor=#000000;fillColor=#FFD966;" parent="1" vertex="1">
          <mxGeometry x="444.5" y="710" width="30" height="30" as="geometry" />
        </mxCell>
        <mxCell id="uWUnNED6HEl2aK5fdaIb-86" value="&lt;font style=&quot;font-size: 13px;&quot; face=&quot;Verdana&quot;&gt;jira feature 3&lt;/font&gt;" style="text;html=1;strokeColor=none;fillColor=none;align=left;verticalAlign=middle;whiteSpace=wrap;overflow=hidden;fontSize=14;fontStyle=1;fontFamily=Courier New;" parent="1" vertex="1">
          <mxGeometry x="170" y="750" width="240" height="20" as="geometry" />
        </mxCell>
        <mxCell id="uWUnNED6HEl2aK5fdaIb-87" value="development branch" style="text;html=1;strokeColor=none;fillColor=none;align=left;verticalAlign=middle;whiteSpace=wrap;overflow=hidden;fontSize=14;fontStyle=0;fontColor=#009900;fontFamily=Verdana;" parent="1" vertex="1">
          <mxGeometry x="85.75" y="620" width="240" height="20" as="geometry" />
        </mxCell>
        <mxCell id="uWUnNED6HEl2aK5fdaIb-88" value="feature branch" style="text;html=1;strokeColor=none;fillColor=none;align=left;verticalAlign=middle;whiteSpace=wrap;overflow=hidden;fontSize=14;fontStyle=0;fontColor=#009900;fontFamily=Verdana;" parent="1" vertex="1">
          <mxGeometry x="125.75" y="725" width="240" height="20" as="geometry" />
        </mxCell>
        <mxCell id="uWUnNED6HEl2aK5fdaIb-89" value="release branch" style="text;html=1;strokeColor=none;fillColor=none;align=left;verticalAlign=middle;whiteSpace=wrap;overflow=hidden;fontSize=14;fontStyle=0;fontColor=#009900;fontFamily=Verdana;" parent="1" vertex="1">
          <mxGeometry x="89.75" y="398.5" width="224.25" height="20" as="geometry" />
        </mxCell>
        <mxCell id="uWUnNED6HEl2aK5fdaIb-90" value="main branch" style="text;html=1;strokeColor=none;fillColor=none;align=left;verticalAlign=middle;whiteSpace=wrap;overflow=hidden;fontSize=14;fontStyle=0;fontColor=#009900;fontFamily=Verdana;" parent="1" vertex="1">
          <mxGeometry x="91.5" y="183" width="146.75" height="20" as="geometry" />
        </mxCell>
        <mxCell id="uWUnNED6HEl2aK5fdaIb-91" value="" style="endArrow=classic;html=1;strokeWidth=1;fontFamily=Courier New;fontColor=#009900;exitX=0.721;exitY=-0.175;exitDx=0;exitDy=0;exitPerimeter=0;" parent="1" edge="1">
          <mxGeometry width="50" height="50" relative="1" as="geometry">
            <mxPoint x="267.53999999999996" y="724" as="sourcePoint" />
            <mxPoint x="410" y="725" as="targetPoint" />
          </mxGeometry>
        </mxCell>
        <mxCell id="uWUnNED6HEl2aK5fdaIb-92" value="" style="endArrow=classic;html=1;strokeWidth=1;fontFamily=Courier New;fontColor=#009900;" parent="1" edge="1">
          <mxGeometry width="50" height="50" relative="1" as="geometry">
            <mxPoint x="186.75" y="620" as="sourcePoint" />
            <mxPoint x="350" y="621" as="targetPoint" />
          </mxGeometry>
        </mxCell>
        <mxCell id="uWUnNED6HEl2aK5fdaIb-101" value="&lt;b style=&quot;border-color: var(--border-color); font-size: 12px;&quot;&gt;v1.1.0&lt;/b&gt;" style="text;html=1;strokeColor=none;fillColor=none;align=center;verticalAlign=middle;whiteSpace=wrap;overflow=hidden;fontSize=14;" parent="1" vertex="1">
          <mxGeometry x="548.38" y="141" width="57.75" height="20" as="geometry" />
        </mxCell>
        <mxCell id="uWUnNED6HEl2aK5fdaIb-103" value="&lt;font size=&quot;1&quot; face=&quot;Helvetica&quot;&gt;&lt;b style=&quot;font-size: 12px;&quot;&gt;Version Tag: 1.0.0&lt;/b&gt;&lt;/font&gt;" style="text;html=1;strokeColor=none;fillColor=none;align=center;verticalAlign=middle;whiteSpace=wrap;overflow=hidden;fontSize=14;" parent="1" vertex="1">
          <mxGeometry x="160" y="141" width="110" height="20" as="geometry" />
        </mxCell>
        <mxCell id="uWUnNED6HEl2aK5fdaIb-107" value="" style="edgeStyle=orthogonalEdgeStyle;curved=1;rounded=0;orthogonalLoop=1;jettySize=auto;html=1;endArrow=none;endFill=0;strokeWidth=4;fontFamily=Courier New;fontColor=#009900;" parent="1" source="uWUnNED6HEl2aK5fdaIb-104" target="uWUnNED6HEl2aK5fdaIb-106" edge="1">
          <mxGeometry relative="1" as="geometry" />
        </mxCell>
        <mxCell id="uWUnNED6HEl2aK5fdaIb-104" value="" style="verticalLabelPosition=bottom;verticalAlign=top;html=1;strokeWidth=4;shape=mxgraph.flowchart.on-page_reference;plain-purple;gradientColor=none;strokeColor=#000000;fillColor=#B5E3FE;" parent="1" vertex="1">
          <mxGeometry x="810" y="374.25" width="30" height="30" as="geometry" />
        </mxCell>
        <mxCell id="uWUnNED6HEl2aK5fdaIb-115" style="edgeStyle=orthogonalEdgeStyle;curved=1;rounded=0;orthogonalLoop=1;jettySize=auto;html=1;entryX=0;entryY=0.5;entryDx=0;entryDy=0;entryPerimeter=0;endArrow=none;endFill=0;strokeWidth=4;fontFamily=Courier New;fontColor=#009900;" parent="1" source="uWUnNED6HEl2aK5fdaIb-106" target="uWUnNED6HEl2aK5fdaIb-109" edge="1">
          <mxGeometry relative="1" as="geometry" />
        </mxCell>
        <mxCell id="uWUnNED6HEl2aK5fdaIb-106" value="" style="verticalLabelPosition=bottom;verticalAlign=top;html=1;strokeWidth=4;shape=mxgraph.flowchart.on-page_reference;plain-purple;gradientColor=none;strokeColor=#000000;fillColor=#B5E3FE;" parent="1" vertex="1">
          <mxGeometry x="870" y="374.25" width="30" height="30" as="geometry" />
        </mxCell>
        <mxCell id="uWUnNED6HEl2aK5fdaIb-116" value="&lt;b style=&quot;border-color: var(--border-color); font-size: 12px;&quot;&gt;v1.2.0&lt;/b&gt;" style="text;html=1;strokeColor=none;fillColor=none;align=center;verticalAlign=middle;whiteSpace=wrap;overflow=hidden;fontSize=14;" parent="1" vertex="1">
          <mxGeometry x="870" y="141" width="110" height="20" as="geometry" />
        </mxCell>
        <mxCell id="uWUnNED6HEl2aK5fdaIb-117" value="" style="endArrow=classic;html=1;strokeWidth=1;fontFamily=Courier New;fontColor=#009900;entryX=0.5;entryY=1;entryDx=0;entryDy=0;entryPerimeter=0;" parent="1" edge="1">
          <mxGeometry width="50" height="50" relative="1" as="geometry">
            <mxPoint x="759" y="790" as="sourcePoint" />
            <mxPoint x="759" y="645" as="targetPoint" />
          </mxGeometry>
        </mxCell>
        <mxCell id="fSnZ5vnYTslC5NarKmr_-4" value="&lt;span style=&quot;text-align: center&quot;&gt;&lt;font face=&quot;Verdana&quot;&gt;Merge develop branch into release branch&lt;/font&gt;&lt;br&gt;&lt;/span&gt;" style="text;html=1;strokeColor=none;fillColor=none;align=left;verticalAlign=middle;whiteSpace=wrap;overflow=hidden;fontSize=12;fontStyle=0;fontColor=#000000;" parent="1" vertex="1">
          <mxGeometry x="820" y="595" width="240" height="50" as="geometry" />
        </mxCell>
        <mxCell id="fSnZ5vnYTslC5NarKmr_-5" value="&lt;div style=&quot;&quot;&gt;&lt;font face=&quot;Verdana&quot;&gt;Integrate new features into the main development branch&lt;/font&gt;&lt;/div&gt;" style="text;html=1;strokeColor=none;fillColor=none;align=center;verticalAlign=middle;whiteSpace=wrap;overflow=hidden;fontSize=12;fontStyle=0;fontColor=#000000;" parent="1" vertex="1">
          <mxGeometry x="562.25" y="800" width="420" height="36" as="geometry" />
        </mxCell>
        <mxCell id="9hBKPDzoitwpIBdzFDQ7-15" value="&lt;span style=&quot;text-align: center&quot;&gt;&lt;font face=&quot;Verdana&quot;&gt;Merge release branch into the main branch once thoroughly tested and ready to be deployed to production.&lt;/font&gt;&lt;br&gt;&lt;/span&gt;" style="text;html=1;strokeColor=none;fillColor=none;align=left;verticalAlign=middle;whiteSpace=wrap;overflow=hidden;fontSize=12;fontStyle=0;fontColor=#000000;rounded=0;" parent="1" vertex="1">
          <mxGeometry x="892" y="411" width="207.75" height="69" as="geometry" />
        </mxCell>
        <mxCell id="9hBKPDzoitwpIBdzFDQ7-21" value="" style="edgeStyle=orthogonalEdgeStyle;rounded=0;orthogonalLoop=1;jettySize=auto;html=1;fontSize=15;endArrow=none;endFill=0;strokeWidth=4;entryX=0;entryY=0.5;entryDx=0;entryDy=0;entryPerimeter=0;" parent="1" target="uWUnNED6HEl2aK5fdaIb-11" edge="1">
          <mxGeometry relative="1" as="geometry">
            <mxPoint x="560.25" y="178" as="targetPoint" />
            <mxPoint x="440" y="178" as="sourcePoint" />
          </mxGeometry>
        </mxCell>
        <mxCell id="GzSDNgNMQMDq0PWM7B30-4" value="" style="verticalLabelPosition=bottom;html=1;verticalAlign=top;align=center;strokeColor=none;fillColor=#00BEF2;shape=mxgraph.azure.github_code;pointerEvents=1;" parent="1" vertex="1">
          <mxGeometry x="10" y="10" width="50" height="50" as="geometry" />
        </mxCell>
        <mxCell id="GzSDNgNMQMDq0PWM7B30-8" value="" style="sketch=0;outlineConnect=0;fontColor=#232F3E;gradientColor=none;fillColor=#232F3D;strokeColor=none;dashed=0;verticalLabelPosition=bottom;verticalAlign=top;align=center;html=1;fontSize=12;fontStyle=0;aspect=fixed;pointerEvents=1;shape=mxgraph.aws4.git_repository;" parent="1" vertex="1">
          <mxGeometry x="23.85" y="122" width="52.31" height="68" as="geometry" />
        </mxCell>
        <mxCell id="GzSDNgNMQMDq0PWM7B30-10" value="mpc repo" style="text;html=1;strokeColor=none;fillColor=none;align=center;verticalAlign=middle;whiteSpace=wrap;overflow=hidden;fontSize=13;fontStyle=1;fontFamily=Verdana;" parent="1" vertex="1">
          <mxGeometry x="10" y="90" width="80" height="42" as="geometry" />
        </mxCell>
        <mxCell id="Z2AbHixO8yb0AyLC4-0U-16" style="edgeStyle=orthogonalEdgeStyle;curved=1;rounded=0;orthogonalLoop=1;jettySize=auto;html=1;exitX=1;exitY=0.5;exitDx=0;exitDy=0;exitPerimeter=0;entryX=0;entryY=0.5;entryDx=0;entryDy=0;entryPerimeter=0;endArrow=none;endFill=0;strokeWidth=4;fontFamily=Courier New;fontColor=#009900;" edge="1" parent="1" source="uWUnNED6HEl2aK5fdaIb-77">
          <mxGeometry relative="1" as="geometry">
            <mxPoint x="603.75" y="699" as="sourcePoint" />
            <mxPoint x="658.75" y="620" as="targetPoint" />
          </mxGeometry>
        </mxCell>
        <mxCell id="uWUnNED6HEl2aK5fdaIb-77" value="" style="verticalLabelPosition=bottom;verticalAlign=top;html=1;strokeWidth=4;shape=mxgraph.flowchart.on-page_reference;plain-purple;gradientColor=none;strokeColor=#000000;fillColor=#67AB9F;" parent="1" vertex="1">
          <mxGeometry x="652.25" y="605" width="30" height="30" as="geometry" />
        </mxCell>
        <mxCell id="Z2AbHixO8yb0AyLC4-0U-20" style="edgeStyle=orthogonalEdgeStyle;curved=1;rounded=0;orthogonalLoop=1;jettySize=auto;html=1;endArrow=none;endFill=0;strokeWidth=4;fontFamily=Courier New;fontColor=#009900;entryX=0;entryY=0.5;entryDx=0;entryDy=0;entryPerimeter=0;" edge="1" parent="1" source="Z2AbHixO8yb0AyLC4-0U-3" target="uWUnNED6HEl2aK5fdaIb-77">
          <mxGeometry relative="1" as="geometry">
            <mxPoint x="577.5" y="699" as="sourcePoint" />
            <mxPoint x="630" y="640" as="targetPoint" />
          </mxGeometry>
        </mxCell>
        <mxCell id="Z2AbHixO8yb0AyLC4-0U-21" style="edgeStyle=orthogonalEdgeStyle;rounded=0;orthogonalLoop=1;jettySize=auto;html=1;endArrow=none;endFill=0;strokeWidth=4;curved=1;entryX=1;entryY=0.5;entryDx=0;entryDy=0;entryPerimeter=0;" edge="1" parent="1" source="Z2AbHixO8yb0AyLC4-0U-18" target="uWUnNED6HEl2aK5fdaIb-70">
          <mxGeometry relative="1" as="geometry">
            <mxPoint x="586.25" y="764.25" as="sourcePoint" />
            <mxPoint x="538.75" y="633.25" as="targetPoint" />
          </mxGeometry>
        </mxCell>
        <mxCell id="Z2AbHixO8yb0AyLC4-0U-3" value="" style="verticalLabelPosition=bottom;verticalAlign=top;html=1;strokeWidth=4;shape=mxgraph.flowchart.on-page_reference;plain-purple;gradientColor=none;strokeColor=#000000;fillColor=#FFD966;" vertex="1" parent="1">
          <mxGeometry x="582.25" y="710" width="30" height="30" as="geometry" />
        </mxCell>
        <mxCell id="Z2AbHixO8yb0AyLC4-0U-23" value="" style="endArrow=classic;html=1;strokeWidth=1;fontFamily=Courier New;fontColor=#009900;exitX=0.395;exitY=-0.043;exitDx=0;exitDy=0;exitPerimeter=0;" edge="1" parent="1" source="9hBKPDzoitwpIBdzFDQ7-15">
          <mxGeometry width="50" height="50" relative="1" as="geometry">
            <mxPoint x="974.5" y="368.5" as="sourcePoint" />
            <mxPoint x="974.5" y="214.5" as="targetPoint" />
          </mxGeometry>
        </mxCell>
        <mxCell id="Z2AbHixO8yb0AyLC4-0U-24" value="" style="endArrow=classic;html=1;strokeWidth=1;fontFamily=Courier New;fontColor=#009900;exitX=0.05;exitY=-0.02;exitDx=0;exitDy=0;exitPerimeter=0;" edge="1" parent="1" source="fSnZ5vnYTslC5NarKmr_-4">
          <mxGeometry width="50" height="50" relative="1" as="geometry">
            <mxPoint x="830" y="579" as="sourcePoint" />
            <mxPoint x="830" y="425" as="targetPoint" />
          </mxGeometry>
        </mxCell>
        <mxCell id="Z2AbHixO8yb0AyLC4-0U-18" value="" style="verticalLabelPosition=bottom;verticalAlign=top;html=1;strokeWidth=4;shape=mxgraph.flowchart.on-page_reference;plain-purple;gradientColor=none;strokeColor=#000000;fillColor=#FFD966;" vertex="1" parent="1">
          <mxGeometry x="592.25" y="750" width="30" height="30" as="geometry" />
        </mxCell>
        <mxCell id="Z2AbHixO8yb0AyLC4-0U-31" style="edgeStyle=orthogonalEdgeStyle;curved=1;rounded=0;orthogonalLoop=1;jettySize=auto;html=1;endArrow=none;endFill=0;strokeWidth=4;fontFamily=Courier New;fontColor=#009900;" edge="1" parent="1" source="Z2AbHixO8yb0AyLC4-0U-27">
          <mxGeometry relative="1" as="geometry">
            <mxPoint x="682.25" y="765.25" as="sourcePoint" />
            <mxPoint x="738.25" y="620" as="targetPoint" />
            <Array as="points">
              <mxPoint x="710" y="620" />
            </Array>
          </mxGeometry>
        </mxCell>
        <mxCell id="Z2AbHixO8yb0AyLC4-0U-35" value="feature branch" style="text;html=1;strokeColor=none;fillColor=none;align=left;verticalAlign=middle;whiteSpace=wrap;overflow=hidden;fontSize=14;fontStyle=0;fontColor=#009900;fontFamily=Verdana;" vertex="1" parent="1">
          <mxGeometry x="170" y="770" width="240" height="20" as="geometry" />
        </mxCell>
        <mxCell id="Z2AbHixO8yb0AyLC4-0U-36" value="" style="endArrow=classic;html=1;strokeWidth=1;fontFamily=Courier New;fontColor=#009900;exitX=0.721;exitY=-0.175;exitDx=0;exitDy=0;exitPerimeter=0;" edge="1" parent="1">
          <mxGeometry width="50" height="50" relative="1" as="geometry">
            <mxPoint x="311.78999999999996" y="769" as="sourcePoint" />
            <mxPoint x="574.25" y="770" as="targetPoint" />
          </mxGeometry>
        </mxCell>
        <mxCell id="Z2AbHixO8yb0AyLC4-0U-39" value="" style="edgeStyle=orthogonalEdgeStyle;curved=1;rounded=0;orthogonalLoop=1;jettySize=auto;html=1;endArrow=none;endFill=0;strokeWidth=4;fontFamily=Courier New;fontColor=#009900;" edge="1" parent="1" target="Z2AbHixO8yb0AyLC4-0U-27">
          <mxGeometry relative="1" as="geometry">
            <mxPoint x="682.25" y="765.25" as="sourcePoint" />
            <mxPoint x="738.25" y="620" as="targetPoint" />
            <Array as="points">
              <mxPoint x="710" y="765" />
            </Array>
          </mxGeometry>
        </mxCell>
        <mxCell id="Z2AbHixO8yb0AyLC4-0U-27" value="" style="verticalLabelPosition=bottom;verticalAlign=top;html=1;strokeWidth=4;shape=mxgraph.flowchart.on-page_reference;plain-purple;gradientColor=none;strokeColor=#000000;fillColor=#FFD966;" vertex="1" parent="1">
          <mxGeometry x="670" y="750" width="30" height="30" as="geometry" />
        </mxCell>
        <mxCell id="Z2AbHixO8yb0AyLC4-0U-41" value="" style="edgeStyle=orthogonalEdgeStyle;curved=1;rounded=0;orthogonalLoop=1;jettySize=auto;html=1;endArrow=none;endFill=0;strokeWidth=4;fontFamily=Courier New;fontColor=#009900;" edge="1" parent="1">
          <mxGeometry relative="1" as="geometry">
            <mxPoint x="474.5" y="724.5" as="sourcePoint" />
            <mxPoint x="580" y="725" as="targetPoint" />
          </mxGeometry>
        </mxCell>
        <mxCell id="Z2AbHixO8yb0AyLC4-0U-42" value="" style="edgeStyle=orthogonalEdgeStyle;curved=1;rounded=0;orthogonalLoop=1;jettySize=auto;html=1;endArrow=none;endFill=0;strokeWidth=4;fontFamily=Courier New;fontColor=#009900;" edge="1" parent="1">
          <mxGeometry relative="1" as="geometry">
            <mxPoint x="622.25" y="764.5" as="sourcePoint" />
            <mxPoint x="670" y="765" as="targetPoint" />
          </mxGeometry>
        </mxCell>
        <mxCell id="Z2AbHixO8yb0AyLC4-0U-51" value="" style="edgeStyle=orthogonalEdgeStyle;curved=1;rounded=0;orthogonalLoop=1;jettySize=auto;html=1;endArrow=none;endFill=0;strokeWidth=4;fontFamily=Courier New;fontColor=#009900;" edge="1" parent="1" target="Z2AbHixO8yb0AyLC4-0U-43">
          <mxGeometry relative="1" as="geometry">
            <mxPoint x="484.5" y="682.25" as="sourcePoint" />
            <mxPoint x="510" y="630" as="targetPoint" />
          </mxGeometry>
        </mxCell>
        <mxCell id="Z2AbHixO8yb0AyLC4-0U-43" value="" style="verticalLabelPosition=bottom;verticalAlign=top;html=1;strokeWidth=4;shape=mxgraph.flowchart.on-page_reference;plain-purple;gradientColor=none;strokeColor=#000000;fillColor=#FFD966;" vertex="1" parent="1">
          <mxGeometry x="460" y="660" width="30" height="30" as="geometry" />
        </mxCell>
        <mxCell id="Z2AbHixO8yb0AyLC4-0U-54" style="edgeStyle=orthogonalEdgeStyle;curved=1;rounded=0;orthogonalLoop=1;jettySize=auto;html=1;exitX=1;exitY=0.5;exitDx=0;exitDy=0;exitPerimeter=0;endArrow=none;endFill=0;strokeWidth=4;fontFamily=Courier New;fontColor=#009900;entryX=0;entryY=0.5;entryDx=0;entryDy=0;entryPerimeter=0;" edge="1" parent="1" target="Z2AbHixO8yb0AyLC4-0U-43">
          <mxGeometry relative="1" as="geometry">
            <mxPoint x="410" y="620" as="sourcePoint" />
            <mxPoint x="450" y="660" as="targetPoint" />
          </mxGeometry>
        </mxCell>
        <mxCell id="Z2AbHixO8yb0AyLC4-0U-55" value="&lt;font style=&quot;font-size: 13px;&quot; face=&quot;Verdana&quot;&gt;jira feature 2&lt;/font&gt;" style="text;html=1;strokeColor=none;fillColor=none;align=left;verticalAlign=middle;whiteSpace=wrap;overflow=hidden;fontSize=14;fontStyle=1;fontFamily=Courier New;" vertex="1" parent="1">
          <mxGeometry x="125.75" y="705" width="240" height="20" as="geometry" />
        </mxCell>
        <mxCell id="Z2AbHixO8yb0AyLC4-0U-58" value="feature branch" style="text;html=1;strokeColor=none;fillColor=none;align=left;verticalAlign=middle;whiteSpace=wrap;overflow=hidden;fontSize=14;fontStyle=0;fontColor=#009900;fontFamily=Verdana;" vertex="1" parent="1">
          <mxGeometry x="125.75" y="680" width="240" height="20" as="geometry" />
        </mxCell>
        <mxCell id="Z2AbHixO8yb0AyLC4-0U-59" value="" style="endArrow=classic;html=1;strokeWidth=1;fontFamily=Courier New;fontColor=#009900;exitX=0.721;exitY=-0.175;exitDx=0;exitDy=0;exitPerimeter=0;" edge="1" parent="1">
          <mxGeometry width="50" height="50" relative="1" as="geometry">
            <mxPoint x="267.53999999999996" y="679" as="sourcePoint" />
            <mxPoint x="410" y="680" as="targetPoint" />
          </mxGeometry>
        </mxCell>
        <mxCell id="Z2AbHixO8yb0AyLC4-0U-60" value="&lt;font style=&quot;font-size: 13px;&quot; face=&quot;Verdana&quot;&gt;jira feature 1&lt;br&gt;&lt;/font&gt;" style="text;html=1;strokeColor=none;fillColor=none;align=left;verticalAlign=middle;whiteSpace=wrap;overflow=hidden;fontSize=14;fontStyle=1;fontFamily=Courier New;" vertex="1" parent="1">
          <mxGeometry x="125.75" y="660" width="240" height="20" as="geometry" />
        </mxCell>
        <mxCell id="Z2AbHixO8yb0AyLC4-0U-63" value="" style="edgeStyle=orthogonalEdgeStyle;curved=1;rounded=0;orthogonalLoop=1;jettySize=auto;html=1;endArrow=none;endFill=0;strokeWidth=4;entryX=0;entryY=0.5;entryDx=0;entryDy=0;entryPerimeter=0;" edge="1" parent="1" source="uWUnNED6HEl2aK5fdaIb-11" target="Z2AbHixO8yb0AyLC4-0U-61">
          <mxGeometry relative="1" as="geometry">
            <mxPoint x="890" y="178" as="targetPoint" />
            <mxPoint x="592" y="178" as="sourcePoint" />
          </mxGeometry>
        </mxCell>
        <mxCell id="Z2AbHixO8yb0AyLC4-0U-64" value="&lt;b style=&quot;border-color: var(--border-color); font-size: 12px;&quot;&gt;v1.1.1&lt;/b&gt;" style="text;html=1;strokeColor=none;fillColor=none;align=center;verticalAlign=middle;whiteSpace=wrap;overflow=hidden;fontSize=14;" vertex="1" parent="1">
          <mxGeometry x="670" y="141" width="57.75" height="20" as="geometry" />
        </mxCell>
        <mxCell id="Z2AbHixO8yb0AyLC4-0U-76" style="edgeStyle=orthogonalEdgeStyle;rounded=0;orthogonalLoop=1;jettySize=auto;html=1;exitX=1;exitY=0.5;exitDx=0;exitDy=0;exitPerimeter=0;endArrow=none;endFill=0;strokeWidth=4;curved=1;" edge="1" parent="1" source="Z2AbHixO8yb0AyLC4-0U-61">
          <mxGeometry relative="1" as="geometry">
            <mxPoint x="690" y="180" as="targetPoint" />
          </mxGeometry>
        </mxCell>
        <mxCell id="Z2AbHixO8yb0AyLC4-0U-67" value="" style="verticalLabelPosition=bottom;verticalAlign=top;html=1;strokeWidth=4;shape=mxgraph.flowchart.on-page_reference;plain-purple;gradientColor=none;strokeColor=#000000;fillColor=#EA6B66;" vertex="1" parent="1">
          <mxGeometry x="622.25" y="250" width="30" height="30" as="geometry" />
        </mxCell>
        <mxCell id="Z2AbHixO8yb0AyLC4-0U-69" value="" style="edgeStyle=orthogonalEdgeStyle;rounded=0;orthogonalLoop=1;jettySize=auto;html=1;" edge="1" parent="1">
          <mxGeometry relative="1" as="geometry">
            <mxPoint x="502" y="264.5" as="sourcePoint" />
            <mxPoint x="597.75" y="264.5" as="targetPoint" />
          </mxGeometry>
        </mxCell>
        <mxCell id="Z2AbHixO8yb0AyLC4-0U-70" value="hotfix branch" style="text;html=1;strokeColor=none;fillColor=none;align=left;verticalAlign=middle;whiteSpace=wrap;overflow=hidden;fontSize=14;fontStyle=0;fontColor=#009900;fontFamily=Verdana;" vertex="1" parent="1">
          <mxGeometry x="392.88" y="270" width="224.25" height="20" as="geometry" />
        </mxCell>
        <mxCell id="Z2AbHixO8yb0AyLC4-0U-71" value="1.1.1-hotfix" style="text;html=1;strokeColor=none;fillColor=none;align=left;verticalAlign=middle;whiteSpace=wrap;overflow=hidden;fontSize=13;fontStyle=1;fontFamily=Verdana;" vertex="1" parent="1">
          <mxGeometry x="390" y="250" width="112.25" height="20" as="geometry" />
        </mxCell>
        <mxCell id="Z2AbHixO8yb0AyLC4-0U-61" value="" style="verticalLabelPosition=bottom;verticalAlign=top;html=1;strokeWidth=4;shape=mxgraph.flowchart.on-page_reference;plain-blue;gradientColor=none;strokeColor=#000000;fillColor=#999999;" vertex="1" parent="1">
          <mxGeometry x="682.25" y="163" width="30" height="30" as="geometry" />
        </mxCell>
        <mxCell id="Z2AbHixO8yb0AyLC4-0U-82" style="edgeStyle=orthogonalEdgeStyle;curved=1;rounded=0;html=1;exitX=1;exitY=0.5;exitPerimeter=0;endArrow=none;endFill=0;jettySize=auto;orthogonalLoop=1;strokeWidth=4;fontSize=15;exitDx=0;exitDy=0;entryX=0;entryY=0.5;entryDx=0;entryDy=0;entryPerimeter=0;" edge="1" parent="1" source="Z2AbHixO8yb0AyLC4-0U-61" target="uWUnNED6HEl2aK5fdaIb-104">
          <mxGeometry relative="1" as="geometry">
            <mxPoint x="711.2" y="190" as="sourcePoint" />
            <mxPoint x="769.45" y="357" as="targetPoint" />
          </mxGeometry>
        </mxCell>
        <mxCell id="Z2AbHixO8yb0AyLC4-0U-83" style="edgeStyle=orthogonalEdgeStyle;rounded=0;orthogonalLoop=1;jettySize=auto;html=1;exitX=1;exitY=0.5;exitDx=0;exitDy=0;exitPerimeter=0;entryX=0;entryY=0.5;entryDx=0;entryDy=0;entryPerimeter=0;strokeWidth=4;endArrow=none;endFill=0;curved=1;" edge="1" parent="1" source="Z2AbHixO8yb0AyLC4-0U-43" target="uWUnNED6HEl2aK5fdaIb-70">
          <mxGeometry relative="1" as="geometry">
            <Array as="points">
              <mxPoint x="510" y="675" />
              <mxPoint x="510" y="620" />
            </Array>
          </mxGeometry>
        </mxCell>
        <mxCell id="Z2AbHixO8yb0AyLC4-0U-87" style="edgeStyle=orthogonalEdgeStyle;rounded=0;orthogonalLoop=1;jettySize=auto;html=1;exitX=1;exitY=0.5;exitDx=0;exitDy=0;exitPerimeter=0;entryX=0;entryY=0.5;entryDx=0;entryDy=0;entryPerimeter=0;curved=1;endArrow=none;endFill=0;strokeWidth=4;" edge="1" parent="1" source="Z2AbHixO8yb0AyLC4-0U-67" target="Z2AbHixO8yb0AyLC4-0U-61">
          <mxGeometry relative="1" as="geometry">
            <Array as="points">
              <mxPoint x="670" y="265" />
              <mxPoint x="670" y="178" />
            </Array>
          </mxGeometry>
        </mxCell>
        <mxCell id="Z2AbHixO8yb0AyLC4-0U-88" style="edgeStyle=orthogonalEdgeStyle;rounded=0;orthogonalLoop=1;jettySize=auto;html=1;exitX=1;exitY=0.5;exitDx=0;exitDy=0;exitPerimeter=0;entryX=0;entryY=0.5;entryDx=0;entryDy=0;entryPerimeter=0;strokeWidth=4;endArrow=none;endFill=0;curved=1;" edge="1" parent="1" source="uWUnNED6HEl2aK5fdaIb-11" target="Z2AbHixO8yb0AyLC4-0U-67">
          <mxGeometry relative="1" as="geometry">
            <Array as="points">
              <mxPoint x="600" y="178" />
              <mxPoint x="600" y="265" />
            </Array>
          </mxGeometry>
        </mxCell>
        <mxCell id="Z2AbHixO8yb0AyLC4-0U-89" value="" style="verticalLabelPosition=bottom;verticalAlign=top;html=1;strokeWidth=4;shape=mxgraph.flowchart.on-page_reference;plain-purple;gradientColor=none;strokeColor=#000000;fillColor=#7EA6E0;" vertex="1" parent="1">
          <mxGeometry x="400" y="443" width="30" height="30" as="geometry" />
        </mxCell>
        <mxCell id="Z2AbHixO8yb0AyLC4-0U-90" style="edgeStyle=orthogonalEdgeStyle;rounded=0;orthogonalLoop=1;jettySize=auto;html=1;exitX=1;exitY=0.5;exitDx=0;exitDy=0;exitPerimeter=0;entryX=0;entryY=0.5;entryDx=0;entryDy=0;entryPerimeter=0;curved=1;endArrow=none;endFill=0;strokeWidth=4;" edge="1" parent="1" source="Z2AbHixO8yb0AyLC4-0U-67" target="uWUnNED6HEl2aK5fdaIb-95">
          <mxGeometry relative="1" as="geometry" />
        </mxCell>
        <mxCell id="Z2AbHixO8yb0AyLC4-0U-91" style="edgeStyle=orthogonalEdgeStyle;rounded=0;orthogonalLoop=1;jettySize=auto;html=1;exitX=1;exitY=0.5;exitDx=0;exitDy=0;exitPerimeter=0;entryX=0;entryY=0.5;entryDx=0;entryDy=0;entryPerimeter=0;curved=1;endArrow=none;endFill=0;strokeWidth=4;" edge="1" parent="1" source="uWUnNED6HEl2aK5fdaIb-19" target="uWUnNED6HEl2aK5fdaIb-77">
          <mxGeometry relative="1" as="geometry" />
        </mxCell>
        <mxCell id="Z2AbHixO8yb0AyLC4-0U-92" style="edgeStyle=orthogonalEdgeStyle;rounded=0;orthogonalLoop=1;jettySize=auto;html=1;exitX=1;exitY=0.5;exitDx=0;exitDy=0;exitPerimeter=0;entryX=0;entryY=0.5;entryDx=0;entryDy=0;entryPerimeter=0;curved=1;endArrow=none;endFill=0;strokeWidth=4;" edge="1" parent="1" source="uWUnNED6HEl2aK5fdaIb-15" target="Z2AbHixO8yb0AyLC4-0U-89">
          <mxGeometry relative="1" as="geometry" />
        </mxCell>
        <mxCell id="Z2AbHixO8yb0AyLC4-0U-93" style="edgeStyle=orthogonalEdgeStyle;rounded=0;orthogonalLoop=1;jettySize=auto;html=1;exitX=1;exitY=0.5;exitDx=0;exitDy=0;exitPerimeter=0;entryX=0;entryY=0.5;entryDx=0;entryDy=0;entryPerimeter=0;curved=1;strokeWidth=4;endArrow=none;endFill=0;" edge="1" parent="1" source="Z2AbHixO8yb0AyLC4-0U-89" target="uWUnNED6HEl2aK5fdaIb-19">
          <mxGeometry relative="1" as="geometry" />
        </mxCell>
        <mxCell id="Z2AbHixO8yb0AyLC4-0U-94" value="" style="endArrow=classic;html=1;strokeWidth=1;fontFamily=Courier New;fontColor=#009900;exitX=0.721;exitY=-0.175;exitDx=0;exitDy=0;exitPerimeter=0;" edge="1" parent="1">
          <mxGeometry width="50" height="50" relative="1" as="geometry">
            <mxPoint x="239.99999999999997" y="457.5" as="sourcePoint" />
            <mxPoint x="382.46" y="458.5" as="targetPoint" />
          </mxGeometry>
        </mxCell>
        <mxCell id="Z2AbHixO8yb0AyLC4-0U-95" value="feature branch" style="text;html=1;strokeColor=none;fillColor=none;align=left;verticalAlign=middle;whiteSpace=wrap;overflow=hidden;fontSize=14;fontStyle=0;fontColor=#009900;fontFamily=Verdana;" vertex="1" parent="1">
          <mxGeometry x="125.75" y="460" width="240" height="20" as="geometry" />
        </mxCell>
        <mxCell id="Z2AbHixO8yb0AyLC4-0U-96" value="&lt;font style=&quot;font-size: 13px;&quot; face=&quot;Verdana&quot;&gt;jira bug 1&lt;br&gt;&lt;/font&gt;" style="text;html=1;strokeColor=none;fillColor=none;align=left;verticalAlign=middle;whiteSpace=wrap;overflow=hidden;fontSize=14;fontStyle=1;fontFamily=Courier New;" vertex="1" parent="1">
          <mxGeometry x="125.75" y="440" width="240" height="20" as="geometry" />
        </mxCell>
        <mxCell id="Z2AbHixO8yb0AyLC4-0U-98" value="" style="shape=image;html=1;verticalAlign=top;verticalLabelPosition=bottom;labelBackgroundColor=#ffffff;imageAspect=0;aspect=fixed;image=https://cdn1.iconfinder.com/data/icons/ionicons-fill-vol-1/512/git-pull-request-128.png;strokeWidth=1;opacity=60;" vertex="1" parent="1">
          <mxGeometry x="35.75" y="368.5" width="41.5" height="41.5" as="geometry" />
        </mxCell>
        <mxCell id="Z2AbHixO8yb0AyLC4-0U-101" style="edgeStyle=orthogonalEdgeStyle;rounded=1;orthogonalLoop=1;jettySize=auto;html=1;exitX=0.5;exitY=0;exitDx=0;exitDy=0;entryX=0.5;entryY=1;entryDx=0;entryDy=0;strokeWidth=3;curved=0;" edge="1" parent="1" source="Z2AbHixO8yb0AyLC4-0U-99" target="Z2AbHixO8yb0AyLC4-0U-98">
          <mxGeometry relative="1" as="geometry" />
        </mxCell>
        <mxCell id="Z2AbHixO8yb0AyLC4-0U-99" value="" style="shape=image;html=1;verticalAlign=top;verticalLabelPosition=bottom;labelBackgroundColor=#ffffff;imageAspect=0;aspect=fixed;image=https://cdn1.iconfinder.com/data/icons/ionicons-fill-vol-1/512/git-pull-request-128.png;strokeWidth=1;opacity=60;" vertex="1" parent="1">
          <mxGeometry x="35.75" y="595" width="41.5" height="41.5" as="geometry" />
        </mxCell>
        <mxCell id="Z2AbHixO8yb0AyLC4-0U-102" style="edgeStyle=orthogonalEdgeStyle;rounded=1;orthogonalLoop=1;jettySize=auto;html=1;exitX=0.5;exitY=0;exitDx=0;exitDy=0;entryX=0.634;entryY=1.076;entryDx=0;entryDy=0;entryPerimeter=0;curved=0;strokeWidth=3;" edge="1" parent="1" source="Z2AbHixO8yb0AyLC4-0U-98" target="GzSDNgNMQMDq0PWM7B30-8">
          <mxGeometry relative="1" as="geometry" />
        </mxCell>
      </root>
    </mxGraphModel>
  </diagram>
</mxfile>
